<svg xmlns="http://www.w3.org/2000/svg" width="19" height="19" viewBox="0 0 19 19">
    <path fill="#FFF" fill-rule="evenodd" d="M9.5 1.711c2.537 0 2.838.009 3.839.055a5.25 5.25 0 0 1 1.765.328c.827.32 1.48.973 1.8 1.8.21.565.32 1.162.327 1.764.046 1 .055 1.3.055 3.839 0 2.539-.009 2.838-.055 3.84a5.256 5.256 0 0 1-.327 1.764 3.151 3.151 0 0 1-1.8 1.8c-.565.21-1.162.32-1.765.327-1 .046-1.3.055-3.839.055-2.539 0-2.837-.009-3.839-.055a5.25 5.25 0 0 1-1.764-.327 3.149 3.149 0 0 1-1.8-1.8 5.256 5.256 0 0 1-.327-1.764c-.046-1-.055-1.3-.055-3.84s.009-2.837.055-3.839c.007-.602.118-1.2.327-1.764.153-.412.396-.785.711-1.092.306-.316.68-.559 1.093-.71a5.243 5.243 0 0 1 1.764-.328c1-.046 1.3-.055 3.839-.055l-.004.002zm.004-1.714c-2.58 0-2.9.011-3.917.057A6.97 6.97 0 0 0 3.28.496 4.861 4.861 0 0 0 .502 3.275a6.957 6.957 0 0 0-.442 2.3C.011 6.6 0 6.919 0 9.5c0 2.581.011 2.9.057 3.917a6.97 6.97 0 0 0 .442 2.307 4.856 4.856 0 0 0 2.778 2.778 6.97 6.97 0 0 0 2.307.442c1.013.046 1.337.057 3.917.057s2.9-.011 3.917-.057a6.97 6.97 0 0 0 2.307-.442 4.854 4.854 0 0 0 2.779-2.778 7 7 0 0 0 .441-2.307c.046-1.013.057-1.336.057-3.917 0-2.581-.011-2.9-.057-3.917a6.985 6.985 0 0 0-.441-2.3A4.859 4.859 0 0 0 15.725.504a6.97 6.97 0 0 0-2.307-.442C12.405.016 12.082.005 9.501.005l.003-.008zm0 4.622a4.879 4.879 0 1 0 .008 9.754A4.879 4.879 0 0 0 9.5 4.621l.004-.002zm0 8.046a3.167 3.167 0 1 1 2.24-.925 3.167 3.167 0 0 1-2.244.927l.004-.002zm6.212-8.239a1.14 1.14 0 1 1-.335-.805c.213.215.333.505.332.807l.003-.002z"/>
</svg>
