<svg xmlns="http://www.w3.org/2000/svg" width="19" height="16" viewBox="0 0 19 16">
    <path fill="#FFF" fill-rule="evenodd" d="M19.012 1.9c-.71.326-1.466.54-2.242.636A4.029 4.029 0 0 0 18.486.301c-.762.47-1.601.8-2.478.98A3.838 3.838 0 0 0 13.159.005a3.973 3.973 0 0 0-3.9 4.04c0 .31.033.618.1.92A10.959 10.959 0 0 1 1.315.745c-.348.62-.53 1.32-.528 2.031a4.075 4.075 0 0 0 1.736 3.362 3.785 3.785 0 0 1-1.768-.5v.051A4.009 4.009 0 0 0 3.886 9.65a3.764 3.764 0 0 1-1.763.07 3.929 3.929 0 0 0 3.646 2.806 7.667 7.667 0 0 1-5.778 1.672 10.778 10.778 0 0 0 5.982 1.815c7.179 0 11.105-6.155 11.105-11.5 0-.175-.004-.349-.012-.522A8.089 8.089 0 0 0 19.012 1.9z"/>
</svg>
